<svg xmlns="http://www.w3.org/2000/svg" width="280" height="170" viewBox="0 0 280 170">
  <!-- body -->
  <rect width="280" height="170" rx="8" fill="#272822"/>
  <!-- title bar (translucent dark overlay on bg) -->
  <rect width="280" height="24" rx="8" fill="#000000" fill-opacity="0.28"/>
  <rect y="16" width="280" height="8" fill="#000000" fill-opacity="0.28"/>
  <!-- traffic lights -->
  <circle cx="12" cy="12.0" r="5" fill="#ff5f57"/>
  <circle cx="28" cy="12.0" r="5" fill="#febc2e"/>
  <circle cx="44" cy="12.0" r="5" fill="#28c840"/>
  <!-- title -->
  <text x="140.0" y="17" fill="#f8f8f2" opacity="0.75" font-size="11"
        text-anchor="middle" font-family="ui-monospace, SFMono-Regular, Menlo, Consolas, monospace">monokai</text>
  <text x="10" y="40" fill="#f8f8f2" font-size="11" font-family="ui-monospace, SFMono-Regular, Menlo, Consolas, monospace">❯ git status</text>
  <text x="10" y="54" fill="#e3e3dd" font-size="11" font-family="ui-monospace, SFMono-Regular, Menlo, Consolas, monospace">On branch main</text>
  <text x="10" y="68" fill="#b3b42b" font-size="11" font-family="ui-monospace, SFMono-Regular, Menlo, Consolas, monospace">  modified: README.md</text>
  <text x="10" y="82" fill="#86b42b" font-size="11" font-family="ui-monospace, SFMono-Regular, Menlo, Consolas, monospace">  new:      theme_preview.html</text>
  <text x="10" y="96" fill="#c4265e" font-size="11" font-family="ui-monospace, SFMono-Regular, Menlo, Consolas, monospace">  deleted:  old.py</text>
  <text x="10" y="110" fill="#6a7ec8" font-size="11" font-family="ui-monospace, SFMono-Regular, Menlo, Consolas, monospace">❯ echo $SHELL</text>
  <text x="10" y="124" fill="#f8f8f2" font-size="11" font-family="ui-monospace, SFMono-Regular, Menlo, Consolas, monospace">/bin/zsh</text>
  <!-- cursor block at end of last line -->
  <rect x="66" y="114" width="6" height="12" fill="#f8f8f0" opacity="0.85"/>
  <rect x="10.00" y="156" width="15.25" height="8" fill="#333333"/>
  <rect x="26.25" y="156" width="15.25" height="8" fill="#c4265e"/>
  <rect x="42.50" y="156" width="15.25" height="8" fill="#86b42b"/>
  <rect x="58.75" y="156" width="15.25" height="8" fill="#b3b42b"/>
  <rect x="75.00" y="156" width="15.25" height="8" fill="#6a7ec8"/>
  <rect x="91.25" y="156" width="15.25" height="8" fill="#8c6bc8"/>
  <rect x="107.50" y="156" width="15.25" height="8" fill="#56adbc"/>
  <rect x="123.75" y="156" width="15.25" height="8" fill="#e3e3dd"/>
  <rect x="140.00" y="156" width="15.25" height="8" fill="#666666"/>
  <rect x="156.25" y="156" width="15.25" height="8" fill="#f92672"/>
  <rect x="172.50" y="156" width="15.25" height="8" fill="#a6e22e"/>
  <rect x="188.75" y="156" width="15.25" height="8" fill="#e2e22e"/>
  <rect x="205.00" y="156" width="15.25" height="8" fill="#819aff"/>
  <rect x="221.25" y="156" width="15.25" height="8" fill="#ae81ff"/>
  <rect x="237.50" y="156" width="15.25" height="8" fill="#66d9ef"/>
  <rect x="253.75" y="156" width="15.25" height="8" fill="#f8f8f2"/>
</svg>
